<!-- Generated by IcoMoon.io -->
<svg version="1.1" xmlns="http://www.w3.org/2000/svg" width="1536" height="1536" viewBox="0 0 1536 1536">
<title>switch2</title>
<g id="icomoon-ignore">
</g>
<path d="M860.481 576l128.64-493.44c1.92-6.048 2.88-12.513 2.88-19.2 0-34.848-28.161-63.36-63.072-63.36-19.809 0-37.44 8.961-48.927 23.361l-642.243 832.959c-8.64 10.881-13.758 24.639-13.758 39.681 0 35.199 28.8 63.999 63.999 63.999h387.489l-128.64 493.44c-1.953 6.081-2.88 12.513-2.88 19.2 0.030 34.881 28.191 63.36 63.072 63.36 19.839 0 37.44-8.928 48.96-23.361l642.207-832.959c8.673-10.881 13.791-24.609 13.791-39.681 0-35.199-28.8-63.999-63.999-63.999h-387.519z"></path>
</svg>
